<?xml version="1.0" encoding="UTF-8"?>
<svg version="1.1" xmlns="http://www.w3.org/2000/svg" width="500" height="137">
<path d="M0 0 C165 0 330 0 500 0 C500 45.21 500 90.42 500 137 C335 137 170 137 0 137 C0 91.79 0 46.58 0 0 Z " fill="#024880" transform="translate(0,0)"/>
<path d="M0 0 C4.63568367 4.06715643 8.52231126 8.56471688 11.9375 13.6875 C12.9275 14.0175 13.9175 14.3475 14.9375 14.6875 C15.2675 16.6675 15.5975 18.6475 15.9375 20.6875 C16.41960937 20.26597656 16.90171875 19.84445313 17.3984375 19.41015625 C18.03007812 18.86230469 18.66171875 18.31445312 19.3125 17.75 C19.93898438 17.20472656 20.56546875 16.65945312 21.2109375 16.09765625 C28.71370222 9.96983258 46.52669709 14.25157042 53.9375 14.6875 C53.9375 30.5275 53.9375 46.3675 53.9375 62.6875 C48.3275 62.6875 42.7175 62.6875 36.9375 62.6875 C36.6075 50.8075 36.2775 38.9275 35.9375 26.6875 C35.2775 27.6775 34.6175 28.6675 33.9375 29.6875 C33.4425 29.5225 32.9475 29.3575 32.4375 29.1875 C28.92630897 28.48526179 25.4290411 27.81624021 21.9375 28.6875 C18.72897416 31.29919643 17.11697576 32.80846081 16.27807617 36.91723633 C16.26236572 38.10599365 16.24665527 39.29475098 16.23046875 40.51953125 C16.20146484 41.81181641 16.17246094 43.10410156 16.14257812 44.43554688 C16.1361898 45.79036219 16.13033712 47.14518013 16.125 48.5 C16.10184252 49.8743884 16.07647455 51.24874144 16.04882812 52.62304688 C15.98996658 55.97815515 15.95367663 59.33195874 15.9375 62.6875 C15.05634521 62.71980713 14.17519043 62.75211426 13.26733398 62.78540039 C11.52432007 62.87809204 11.52432007 62.87809204 9.74609375 62.97265625 C8.59681396 63.02558838 7.44753418 63.07852051 6.26342773 63.13305664 C1.6762163 63.89776024 -0.75281315 66.02639497 -4.1640625 69.03125 C-9.70382129 73.86429059 -17.11586137 73.11853241 -24.0625 72.6875 C-25.5475 72.1925 -25.5475 72.1925 -27.0625 71.6875 C-27.0625 72.6775 -27.0625 73.6675 -27.0625 74.6875 C-35.75748699 74.53758643 -42.73769802 71.18146063 -50.0625 66.6875 C-50.84496094 65.80191406 -51.62742187 64.91632813 -52.43359375 64.00390625 C-56.11764538 60.75778052 -59.11337872 60.9109217 -63.875 60.875 C-64.66326172 60.84986328 -65.45152344 60.82472656 -66.26367188 60.79882812 C-68.19608373 60.74027019 -70.12934327 60.71094512 -72.0625 60.6875 C-72.07708252 59.82995117 -72.09166504 58.97240234 -72.10668945 58.08886719 C-72.16785478 54.89789587 -72.24202762 51.70756413 -72.32495117 48.51708984 C-72.35814193 47.13797333 -72.38619217 45.75872289 -72.40893555 44.37939453 C-72.44258642 42.39327694 -72.49644729 40.40753441 -72.55078125 38.421875 C-72.57696533 37.22788086 -72.60314941 36.03388672 -72.63012695 34.80371094 C-73.09430708 31.45825914 -73.63012767 30.00404507 -76.0625 27.6875 C-80.62316115 27.08542255 -80.62316115 27.08542255 -84.74926758 28.78637695 C-86.72474939 31.64621649 -86.50153249 34.09764015 -86.57421875 37.54296875 C-86.59216995 38.20460526 -86.61012115 38.86624176 -86.62861633 39.54792786 C-86.68270898 41.65688747 -86.71660931 43.76562099 -86.75 45.875 C-86.78317427 47.30667208 -86.81766405 48.73831433 -86.85351562 50.16992188 C-86.94090887 53.67581349 -87.00097679 57.18067716 -87.0625 60.6875 C-92.3425 60.6875 -97.6225 60.6875 -103.0625 60.6875 C-103.08828125 58.55667969 -103.1140625 56.42585938 -103.140625 54.23046875 C-103.1790463 52.16514922 -103.22420564 50.10007931 -103.27001953 48.03491211 C-103.29823182 46.60046317 -103.31944524 45.16585871 -103.33349609 43.73120117 C-103.35492449 41.66764698 -103.40156467 39.60596294 -103.453125 37.54296875 C-103.47407227 36.30184326 -103.49501953 35.06071777 -103.51660156 33.78198242 C-103.77433924 30.628147 -103.77433924 30.628147 -105.90917969 28.78637695 C-108.85497332 27.28308703 -110.80372742 27.20215089 -114.0625 27.6875 C-117.42248879 30.9556044 -117.47440078 33.87017567 -117.57421875 38.421875 C-117.60966797 39.71738281 -117.64511719 41.01289062 -117.68164062 42.34765625 C-117.70473867 43.71093226 -117.72752114 45.07421364 -117.75 46.4375 C-117.78318648 47.81643862 -117.81767738 49.1953465 -117.85351562 50.57421875 C-117.93601782 53.94502269 -118.00093433 57.31624868 -118.0625 60.6875 C-123.0125 60.6875 -127.9625 60.6875 -133.0625 60.6875 C-133.0625 45.8375 -133.0625 30.9875 -133.0625 15.6875 C-128.1125 15.6875 -123.1625 15.6875 -118.0625 15.6875 C-117.7325 16.6775 -117.4025 17.6675 -117.0625 18.6875 C-116.36125 18.0275 -115.66 17.3675 -114.9375 16.6875 C-109.70404257 13.20269183 -103.03865507 13.86344154 -97.0625 14.6875 C-93.95193534 16.02341604 -92.50073931 17.24926069 -90.0625 19.6875 C-90.0625 20.3475 -90.0625 21.0075 -90.0625 21.6875 C-89.49144531 21.1821875 -88.92039063 20.676875 -88.33203125 20.15625 C-82.19327839 15.23744007 -77.87927096 13.95020414 -70.04296875 14.24609375 C-67.10334646 14.68145065 -64.75687509 15.45735093 -62.0625 16.6875 C-61.95679688 16.11515625 -61.85109375 15.5428125 -61.7421875 14.953125 C-59.17909882 6.40949606 -50.54551102 -0.19925781 -43.0625 -4.3125 C-29.28570542 -9.2529149 -12.1204615 -9.09034613 0 0 Z " fill="#CF684D" transform="translate(302.0625,29.3125)"/>
<path d="M0 0 C7.37216853 -0.09325368 14.74420699 -0.16404243 22.11684895 -0.20724869 C25.54141087 -0.22800031 28.96556517 -0.25608503 32.38989258 -0.30175781 C36.33930343 -0.35409597 40.28855729 -0.37304794 44.23828125 -0.390625 C45.45018631 -0.41127014 46.66209137 -0.43191528 47.91072083 -0.45318604 C58.4381941 -0.45592705 67.31126896 1.5190725 75 9 C75.33 7.02 75.66 5.04 76 3 C81.28 3 86.56 3 92 3 C92 28.08 92 53.16 92 79 C86.72 79 81.44 79 76 79 C75.67 72.4 75.34 65.8 75 59 C73.741875 59.928125 72.48375 60.85625 71.1875 61.8125 C61.59046476 68.89228009 49.69421083 68.43297596 38.3203125 68.43945312 C31.71246778 68.55164721 27.22792522 68.76820648 22 73 C18.53106555 77.55600572 18.92009025 81.45449503 19.19360352 86.89624023 C19.50139819 94.60753977 19.48110125 100.8709548 14.453125 107.06640625 C10.66961829 111.05907752 6.61120888 114.97031313 2 118 C1.34 118 0.68 118 0 118 C-0.09984488 112.93210414 -0.1719226 107.86479699 -0.21972656 102.79614258 C-0.23968148 101.07663991 -0.26685558 99.35720367 -0.30175781 97.63793945 C-0.60171405 82.4680939 1.19066933 71.65599403 11.70703125 60.12890625 C21.90737965 50.14330203 33.57838677 49.39303544 47.15405273 49.45166016 C53.68320783 49.4142206 57.72106613 48.96810549 63 45 C65.96026488 41.8839317 67.24400188 38.26113006 67.5 34 C67.21131077 28.69018033 64.87621255 24.70564777 60.9375 21.125 C56.5692557 18.58860008 52.62601683 19.05030098 47.7734375 19.28125 C17.13314296 20.24548348 17.13314296 20.24548348 8.18408203 11.90039062 C0 2.64079402 0 2.64079402 0 0 Z " fill="#CC644A" transform="translate(23,11)"/>
<path d="M0 0 C5.84142777 3.45717154 10.59311879 7.08090767 12.68359375 13.8125 C15.015604 23.0762097 14.9090309 30.41818178 10.0625 38.8125 C7.11273359 43.38972375 3.35466218 47.2112817 -1.9375 48.8125 C-11.36329682 49.80059884 -18.07174817 49.05633455 -25.9375 43.8125 C-25.9375 53.0525 -25.9375 62.2925 -25.9375 71.8125 C-31.2175 71.8125 -36.4975 71.8125 -41.9375 71.8125 C-41.9375 48.0525 -41.9375 24.2925 -41.9375 -0.1875 C-36.6575 -0.1875 -31.3775 -0.1875 -25.9375 -0.1875 C-25.6075 1.1325 -25.2775 2.4525 -24.9375 3.8125 C-24.51082031 3.4515625 -24.08414062 3.090625 -23.64453125 2.71875 C-16.7658775 -2.38705484 -8.03908148 -3.09058022 0 0 Z " fill="#FCFDFD" transform="translate(401.9375,44.1875)"/>
<path d="M0 0 C3.11056466 1.33591604 4.56176069 2.56176069 7 5 C7 5.66 7 6.32 7 7 C7.57105469 6.4946875 8.14210937 5.989375 8.73046875 5.46875 C14.74331913 0.6508222 19.20821432 -1.01042368 26.9375 -0.5546875 C31.3817326 0.25026279 34.87332785 1.68849994 38 5 C40.91382103 9.77371637 41.40826344 13.77215739 41.29296875 19.2421875 C41.28872391 20.01055939 41.28447906 20.77893127 41.28010559 21.57058716 C41.26341826 24.00575985 41.22578641 26.4400808 41.1875 28.875 C41.17244023 30.53384215 41.15875409 32.19269737 41.14648438 33.8515625 C41.11610889 37.90162751 41.05737331 41.94986932 41 46 C35.72 46 30.44 46 25 46 C24.96261719 43.95296875 24.92523438 41.9059375 24.88671875 39.796875 C24.83803398 37.80775426 24.78924605 35.81863457 24.73754883 33.82958984 C24.70435807 32.45047333 24.67630783 31.07122289 24.65356445 29.69189453 C24.61991358 27.70577694 24.56605271 25.72003441 24.51171875 23.734375 C24.48553467 22.54038086 24.45935059 21.34638672 24.43237305 20.11621094 C23.96819292 16.77075914 23.43237233 15.31654507 21 13 C16.43933885 12.39792255 16.43933885 12.39792255 12.31323242 14.09887695 C10.33775061 16.95871649 10.56096751 19.41014015 10.48828125 22.85546875 C10.47033005 23.51710526 10.45237885 24.17874176 10.43388367 24.86042786 C10.37979102 26.96938747 10.34589069 29.07812099 10.3125 31.1875 C10.27932573 32.61917208 10.24483595 34.05081433 10.20898438 35.48242188 C10.12159113 38.98831349 10.06152321 42.49317716 10 46 C4.72 46 -0.56 46 -6 46 C-6.02578125 43.86917969 -6.0515625 41.73835938 -6.078125 39.54296875 C-6.1165463 37.47764922 -6.16170564 35.41257931 -6.20751953 33.34741211 C-6.23573182 31.91296317 -6.25694524 30.47835871 -6.27099609 29.04370117 C-6.29242449 26.98014698 -6.33906467 24.91846294 -6.390625 22.85546875 C-6.41157227 21.61434326 -6.43251953 20.37321777 -6.45410156 19.09448242 C-6.71183924 15.940647 -6.71183924 15.940647 -8.84667969 14.09887695 C-11.79247332 12.59558703 -13.74122742 12.51465089 -17 13 C-20.35998879 16.2681044 -20.41190078 19.18267567 -20.51171875 23.734375 C-20.54716797 25.02988281 -20.58261719 26.32539062 -20.61914062 27.66015625 C-20.64223867 29.02343226 -20.66502114 30.38671364 -20.6875 31.75 C-20.72068648 33.12893862 -20.75517738 34.5078465 -20.79101562 35.88671875 C-20.87351782 39.25752269 -20.93843433 42.62874868 -21 46 C-25.95 46 -30.9 46 -36 46 C-36 31.15 -36 16.3 -36 1 C-31.05 1 -26.1 1 -21 1 C-20.67 1.99 -20.34 2.98 -20 4 C-19.29875 3.34 -18.5975 2.68 -17.875 2 C-12.64154257 -1.48480817 -5.97615507 -0.82405846 0 0 Z " fill="#FCFCFC" transform="translate(205,44)"/>
<path d="M0 0 C5.9945537 4.49591528 10.89845872 9.71879243 14.25 16.421875 C9.63 16.421875 5.01 16.421875 0.25 16.421875 C0.30220703 18.22785156 0.30220703 18.22785156 0.35546875 20.0703125 C0.3836028 21.64581942 0.41090337 23.22134138 0.4375 24.796875 C0.46263672 25.5909375 0.48777344 26.385 0.51367188 27.203125 C0.54004405 29.27773648 0.40486462 31.35288365 0.25 33.421875 C-0.74 34.081875 -1.73 34.741875 -2.75 35.421875 C-2.42 33.771875 -2.09 32.121875 -1.75 30.421875 C-6.04 29.101875 -10.33 27.781875 -14.75 26.421875 C-12.75 20.421875 -12.75 20.421875 -11.6875 17.921875 C-10.63163567 15.10623679 -10.16469996 12.3938914 -9.75 9.421875 C-14.43242839 10.72254955 -17.80345768 12.09289134 -20.68359375 16.13671875 C-22.1462837 18.86216261 -23.50529074 21.59077158 -24.75 24.421875 C-24.09 24.751875 -23.43 25.081875 -22.75 25.421875 C-25.68502595 26.42924128 -28.62339461 27.42648004 -31.5625 28.421875 C-32.81256836 28.85113281 -32.81256836 28.85113281 -34.08789062 29.2890625 C-34.89033203 29.55976562 -35.69277344 29.83046875 -36.51953125 30.109375 C-37.25792236 30.36074219 -37.99631348 30.61210938 -38.75708008 30.87109375 C-40.75 31.421875 -40.75 31.421875 -43.75 31.421875 C-44.87880057 34.73302334 -45.96302675 38.01165757 -46.75 41.421875 C-46.20859375 40.73351562 -46.20859375 40.73351562 -45.65625 40.03125 C-43.03055715 37.81447653 -40.58847336 37.40874525 -37.25 36.671875 C-35.53296875 36.27742188 -35.53296875 36.27742188 -33.78125 35.875 C-30.75 35.421875 -30.75 35.421875 -27.75 36.421875 C-29.14605469 37.20498047 -29.14605469 37.20498047 -30.5703125 38.00390625 C-36.40096655 42.43778199 -38.07061802 50.03793843 -39.1640625 57.09375 C-39.44214028 64.42489159 -36.5387298 69.97263074 -31.75 75.421875 C-38.58968302 73.57855617 -44.16155623 70.79218762 -49.75 66.421875 C-50.78870239 65.62378418 -50.78870239 65.62378418 -51.84838867 64.80957031 C-54.4584352 61.53235179 -54.28154959 58.6320825 -54.21875 54.62109375 C-54.22579956 53.86649368 -54.23284912 53.11189362 -54.2401123 52.33442688 C-54.26951882 49.11738284 -54.25302766 45.90094862 -54.24072266 42.68383789 C-54.23832806 40.32922835 -54.25933744 37.9755831 -54.28125 35.62109375 C-54.26427063 34.54573616 -54.26427063 34.54573616 -54.24694824 33.44865417 C-54.30936042 27.14784043 -56.29172197 22.88015303 -60.75 18.421875 C-55.59957203 8.53305329 -48.50544162 0.00053501 -37.63671875 -3.61328125 C-24.92700595 -6.82431327 -11.65592977 -6.68891424 0 0 Z " fill="#CD674D" transform="translate(299.75,27.578125)"/>
<path d="M0 0 C0 15.84 0 31.68 0 48 C-5.61 48 -11.22 48 -17 48 C-17.33 36.12 -17.66 24.24 -18 12 C-18.66 12.99 -19.32 13.98 -20 15 C-20.7425 14.7525 -20.7425 14.7525 -21.5 14.5 C-25.01119103 13.79776179 -28.5084589 13.12874021 -32 14 C-35.20852584 16.61169643 -36.82052424 18.12096081 -37.65942383 22.22973633 C-37.67513428 23.41849365 -37.69084473 24.60725098 -37.70703125 25.83203125 C-37.75053711 27.77045898 -37.75053711 27.77045898 -37.79492188 29.74804688 C-37.8013102 31.10286219 -37.80716288 32.45768013 -37.8125 33.8125 C-37.83565748 35.1868884 -37.86102545 36.56124144 -37.88867188 37.93554688 C-37.94752287 41.29005362 -37.97662802 44.64505846 -38 48 C-43.61 48 -49.22 48 -55 48 C-55 32.16 -55 16.32 -55 0 C-49.72 0 -44.44 0 -39 0 C-38.67 1.98 -38.34 3.96 -38 6 C-37.51789063 5.57847656 -37.03578125 5.15695313 -36.5390625 4.72265625 C-35.90742188 4.17480469 -35.27578125 3.62695312 -34.625 3.0625 C-33.68527344 2.24458984 -33.68527344 2.24458984 -32.7265625 1.41015625 C-25.22379778 -4.71766742 -7.41080291 -0.43592958 0 0 Z " fill="#FAFBFC" transform="translate(356,44)"/>
<path d="M0 0 C5.28 0 10.56 0 16 0 C16.03738281 1.97484375 16.07476562 3.9496875 16.11328125 5.984375 C16.17893316 8.57293591 16.24538076 11.16147672 16.3125 13.75 C16.33505859 15.05195312 16.35761719 16.35390625 16.38085938 17.6953125 C16.4340332 19.57089844 16.4340332 19.57089844 16.48828125 21.484375 C16.51446533 22.63647461 16.54064941 23.78857422 16.56762695 24.97558594 C17.03504638 28.24514653 17.69372052 29.67302224 20 32 C22.20813597 32.51899549 22.20813597 32.51899549 24.5625 32.3125 C25.34753906 32.28800781 26.13257813 32.26351562 26.94140625 32.23828125 C29.06128029 32.11161178 29.06128029 32.11161178 31 31 C32.1007076 27.6978772 32.20627072 25.05916721 32.31640625 21.58203125 C32.37924805 19.70161133 32.37924805 19.70161133 32.44335938 17.78320312 C32.48267578 16.47287109 32.52199219 15.16253906 32.5625 13.8125 C32.60570992 12.47720022 32.649325 11.14191348 32.69335938 9.80664062 C32.79956434 6.53788766 32.90029785 3.26895777 33 0 C38.28 0 43.56 0 49 0 C49.11540982 4.5548408 49.21473472 9.10452448 49.2746582 13.65966797 C49.29965732 15.20574212 49.33366902 16.75169982 49.37719727 18.29736328 C49.8027097 33.8060399 49.8027097 33.8060399 45.27197266 39.66455078 C40.75542729 44.40648996 35.82847906 46.04108593 29.3203125 46.3359375 C27.58865518 46.35965883 25.85681787 46.37242672 24.125 46.375 C23.26519531 46.39949219 22.40539062 46.42398438 21.51953125 46.44921875 C15.5036646 46.47660509 11.02653173 45.38121054 6 42 C1.77242823 37.77242823 0.15552958 33.41589282 -0.22705078 27.47314453 C-0.21657715 26.20583496 -0.20610352 24.93852539 -0.1953125 23.6328125 C-0.1924826 22.95322479 -0.18965271 22.27363708 -0.18673706 21.57345581 C-0.17562964 19.42378392 -0.15054391 17.27454386 -0.125 15.125 C-0.11495795 13.65886023 -0.10583425 12.19271386 -0.09765625 10.7265625 C-0.07743104 7.15074542 -0.03826713 3.57585046 0 0 Z " fill="#F9FAFC" transform="translate(117,45)"/>
<path d="M0 0 C0.75079834 0.00580078 1.50159668 0.01160156 2.27514648 0.01757812 C7.61704168 0.14309203 11.81818262 0.92045496 16.625 3.375 C16.01801257 7.50251449 14.58689209 10.7071148 12.625 14.375 C7.875 13.5 7.875 13.5 5.625 12.375 C4.25157169 12.3060528 2.87497898 12.29032292 1.5 12.3125 C-0.418125 12.3434375 -0.418125 12.3434375 -2.375 12.375 C-2.375 13.695 -2.375 15.015 -2.375 16.375 C-1.49457031 16.68953125 -0.61414063 17.0040625 0.29296875 17.328125 C1.45441406 17.75609375 2.61585938 18.1840625 3.8125 18.625 C4.96105469 19.04265625 6.10960937 19.4603125 7.29296875 19.890625 C11.91832008 21.95115666 14.81748623 24.16372935 17.625 28.375 C18.3021211 33.83133631 18.30187318 38.79562924 16.125 43.875 C11.07633207 48.92366793 5.64739145 50.87591845 -1.44140625 50.921875 C-2.64603516 50.89867188 -2.64603516 50.89867188 -3.875 50.875 C-5.07962891 50.89820312 -5.07962891 50.89820312 -6.30859375 50.921875 C-11.83261928 50.88606284 -16.99729894 49.98448513 -21.375 46.375 C-22.45103421 43.62472264 -22.5476756 42.78400417 -21.37890625 40.015625 C-20.90324219 39.22671875 -20.42757813 38.4378125 -19.9375 37.625 C-19.46441406 36.82578125 -18.99132812 36.0265625 -18.50390625 35.203125 C-18.13136719 34.59984375 -17.75882812 33.9965625 -17.375 33.375 C-12.63815789 35.21710526 -12.63815789 35.21710526 -10.5 36.5 C-7.44563826 37.75767836 -4.63753841 37.50048225 -1.375 37.375 C-1.045 36.055 -0.715 34.735 -0.375 33.375 C-1.32761719 32.93929687 -2.28023438 32.50359375 -3.26171875 32.0546875 C-4.52901194 31.45389665 -5.79591878 30.85229037 -7.0625 30.25 C-7.68833984 29.96640625 -8.31417969 29.6828125 -8.95898438 29.390625 C-13.67379584 27.11961634 -16.44060153 24.74631779 -19.375 20.375 C-20.4069075 16.05312859 -20.38893068 11.50597296 -18.453125 7.4375 C-13.58455895 1.11468695 -7.46448232 -0.13873581 0 0 Z " fill="#F9FBFC" transform="translate(435.375,42.625)"/>
<path d="M0 0 C5.28 0 10.56 0 16 0 C16 25.08 16 50.16 16 76 C10.72 76 5.44 76 0 76 C-0.16331794 72.51890832 -0.2815237 69.04560493 -0.375 65.5625 C-0.42527344 64.58861328 -0.47554688 63.61472656 -0.52734375 62.61132812 C-0.65928489 56.03626132 0.41600729 52.24021439 4.50537109 47.05053711 C9.64169358 40.00382483 9.13862749 30.3119807 8 22 C6.22044907 16.7213934 3.96575219 11.96575219 0 8 C0 5.36 0 2.72 0 0 Z " fill="#FAFAFB" transform="translate(99,14)"/>
<path d="M0 0 C-0.30656385 6.62177926 -1.74288723 11.22125154 -5 17 C-3.989375 17.103125 -2.97875 17.20625 -1.9375 17.3125 C2.21218208 18.03704767 5.21356263 19.22269266 9 21 C8.01 22.98 7.02 24.96 6 27 C0.06 27 -5.88 27 -12 27 C-13.299375 29.619375 -14.59875 32.23875 -15.9375 34.9375 C-16.34605225 35.7430835 -16.75460449 36.54866699 -17.17553711 37.37866211 C-19.8101463 42.83686645 -22.059707 48.87180357 -20.49487305 54.96777344 C-19.41163668 57.65047879 -18.04508068 59.93989243 -16.3125 62.25 C-15 64 -15 64 -15 67 C-19.10871679 66.75831078 -21.45385242 66.42202313 -24.75 63.875 C-28.68044876 58.85275991 -30.6412512 54.03378492 -30.421875 47.671875 C-29.22607958 40.09850399 -26.91658642 32.12012286 -21 27 C-23.10696905 27.42379834 -25.21053527 27.8645403 -27.3125 28.3125 C-28.48425781 28.55613281 -29.65601563 28.79976562 -30.86328125 29.05078125 C-33.88082736 29.96393655 -35.10580785 30.55874874 -37 33 C-37.66 32.67 -38.32 32.34 -39 32 C-38.12222039 27.92516986 -36.81595837 25.09894594 -34 22 C-30.03780798 20.10378822 -25.84855293 19.01417458 -21.5925293 17.97802734 C-20.34789917 17.66792725 -20.34789917 17.66792725 -19.078125 17.3515625 C-18.31918945 17.18479004 -17.56025391 17.01801758 -16.77832031 16.84619141 C-14.79814742 16.15982244 -14.79814742 16.15982244 -14.29492188 14.04272461 C-14.19759766 13.36862549 -14.10027344 12.69452637 -14 12 C-11.98610374 6.85666692 -10.2503184 3.34882665 -5 1 C-3 0 -3 0 0 0 Z " fill="#F9F5F4" transform="translate(290,37)"/>
<path d="M0 0 C5.5 3 5.5 3 7 6 C7.43808718 10.28819956 7.44926618 13.94422448 5.75 17.9375 C2.71291576 21.51692071 0.8221576 21.90717575 -3.875 22.4375 C-7.12458092 22.3646122 -8.89939678 21.71798257 -11.4375 19.6875 C-14.4301569 16.54885984 -14.89293685 14.94572445 -15.375 10.6875 C-14.87765929 5.79698299 -13.42915508 4.42915508 -10 1 C-6.78918322 -0.60540839 -3.48289645 -0.48463309 0 0 Z " fill="#054A81" transform="translate(391,57)"/>
<path d="M0 0 C2.70567626 1.82339052 4.53728718 3.07457436 6 6 C6.40417552 8.96395382 6.56382171 11.08904926 4.953125 13.69140625 C1.9740449 17.32763637 0.35633792 18.84645231 -4.3125 19.375 C-8 19 -8 19 -10.875 16.625 C-13.12186213 13.84946442 -13.89853235 12.74409608 -14.375 9.25 C-13.8528401 4.7246142 -12.15770622 3.2328897 -9 0 C-5.81229009 -1.59385496 -3.40972958 -0.75129635 0 0 Z " fill="#F6F8FA" transform="translate(352,15)"/>
<path d="M0 0 C0.33 0 0.66 0 1 0 C1.07476562 0.66386719 1.14953125 1.32773437 1.2265625 2.01171875 C1.88843791 6.45666634 2.3893876 9.29297512 5.375 12.75 C10.18940069 16.10804448 15.70475474 18.50660781 21 21 C20.125 24.875 20.125 24.875 19 26 C12.43920968 26.82009879 8.46731843 24.47131329 3 21 C2.5978125 22.0209375 2.5978125 22.0209375 2.1875 23.0625 C0.83946694 26.39710809 -0.57536298 29.69743237 -2 33 C-2.66 32.01 -3.32 31.02 -4 30 C-3.25 27.6875 -3.25 27.6875 -2 25 C0.61071198 18.61825961 0.41352099 12.84870015 -0.5625 6.125 C-1 3 -1 3 0 0 Z " fill="#135588" transform="translate(415,55)"/>
<path d="M0 0 C0.78375 0.04125 1.5675 0.0825 2.375 0.125 C4.46850689 3.5269487 4.55442163 6.17772412 4.375 10.125 C1 10.25 1 10.25 -2.625 10.125 C-4.625 8.125 -4.625 8.125 -4.875 5.125 C-4.55416156 1.2749387 -3.94115238 0.18767392 0 0 Z " fill="#6F97B7" transform="translate(106.625,100.875)"/>
<path d="M0 0 C2.5 0.25 2.5 0.25 4.5 2.25 C4.75 5.25 4.75 5.25 4.5 8.25 C2.5 10.25 2.5 10.25 0 10.5 C-2.5 10.25 -2.5 10.25 -4.5 8.25 C-4.75 5.25 -4.75 5.25 -4.5 2.25 C-2.5 0.25 -2.5 0.25 0 0 Z " fill="#6691B2" transform="translate(64.5,100.75)"/>
<path d="M0 0 C0.99 0.33 1.98 0.66 3 1 C3.94921875 3.06640625 3.94921875 3.06640625 4.6875 5.5625 C5.06455078 6.80193359 5.06455078 6.80193359 5.44921875 8.06640625 C5.63097656 8.70449219 5.81273438 9.34257813 6 10 C5.34 10 4.68 10 4 10 C4 9.34 4 8.68 4 8 C2.35 8 0.7 8 -1 8 C-1 8.66 -1 9.32 -1 10 C-1.66 10 -2.32 10 -3 10 C-2.01 6.7 -1.02 3.4 0 0 Z " fill="#BFD1DF" transform="translate(91,101)"/>
<path d="M0 0 C2.31 0 4.62 0 7 0 C7 0.33 7 0.66 7 1 C5.35 1 3.7 1 2 1 C2 1.99 2 2.98 2 4 C3.32 4 4.64 4 6 4 C6 4.66 6 5.32 6 6 C4.68 6 3.36 6 2 6 C2 6.99 2 7.98 2 9 C3.65 9 5.3 9 7 9 C7 9.33 7 9.66 7 10 C4.69 10 2.38 10 0 10 C0 6.7 0 3.4 0 0 Z " fill="#BFD1DF" transform="translate(117,101)"/>
<path d="M0 0 C2.31 0 4.62 0 7 0 C7 0.33 7 0.66 7 1 C5.35 1 3.7 1 2 1 C2 1.99 2 2.98 2 4 C3.32 4 4.64 4 6 4 C6 4.66 6 5.32 6 6 C4.68 6 3.36 6 2 6 C2 6.99 2 7.98 2 9 C3.65 9 5.3 9 7 9 C7 9.33 7 9.66 7 10 C4.69 10 2.38 10 0 10 C0 6.7 0 3.4 0 0 Z " fill="#BDCFDD" transform="translate(205,101)"/>
<path d="M0 0 C5.61 0 11.22 0 17 0 C17 0.99 17 1.98 17 3 C16.67 2.34 16.34 1.68 16 1 C13.72886197 1.14100857 11.45809275 1.28796755 9.1875 1.4375 C7.92292969 1.51871094 6.65835937 1.59992188 5.35546875 1.68359375 C2.00818107 1.87184547 2.00818107 1.87184547 -1 3 C-0.67 2.01 -0.34 1.02 0 0 Z " fill="#D69983" transform="translate(278,63)"/>
<path d="M0 0 C3 1 3 1 5 3 C5.66 2.01 6.32 1.02 7 0 C7.66 0.33 8.32 0.66 9 1 C8.54625 1.7425 8.0925 2.485 7.625 3.25 C6.31359204 5.46930578 5.11719197 7.67967822 4 10 C3.79503906 9.44570312 3.59007813 8.89140625 3.37890625 8.3203125 C3.10949219 7.59585938 2.84007813 6.87140625 2.5625 6.125 C2.29566406 5.40570313 2.02882813 4.68640625 1.75390625 3.9453125 C1.02083146 1.96351155 1.02083146 1.96351155 0 0 Z " fill="#C9D8E3" transform="translate(74,101)"/>
<path d="M0 0 C2.79872437 2.52788007 4.45773019 4.20411134 5 8 C4.34 8 3.68 8 3 8 C3 7.34 3 6.68 3 6 C1.35 6 -0.3 6 -2 6 C-1.34 4.02 -0.68 2.04 0 0 Z " fill="#759BB9" transform="translate(92,103)"/>
</svg>
